<svg width="99" height="20" viewBox="0 0 99 20" fill="none" xmlns="http://www.w3.org/2000/svg">
<g clip-path="url(#clip0_6_39)">
<path fill-rule="evenodd" clip-rule="evenodd" d="M5.5 10C6.95869 10 8.35764 10.5268 9.38909 11.4645C10.4205 12.4021 11 13.6739 11 15C11 16.3261 10.4205 17.5979 9.38909 18.5355C8.35764 19.4732 6.95869 20 5.5 20C4.04131 20 2.64236 19.4732 1.61091 18.5355C0.579463 17.5979 0 16.3261 0 15C0 13.6739 0.579463 12.4021 1.61091 11.4645C2.64236 10.5268 4.04131 10 5.5 10V10ZM16.5 0C17.9587 0 19.3576 0.526784 20.3891 1.46447C21.4205 2.40215 22 3.67392 22 5C22 6.32608 21.4205 7.59785 20.3891 8.53553C19.3576 9.47322 17.9587 10 16.5 10C15.0413 10 13.6424 9.47322 12.6109 8.53553C11.5795 7.59785 11 6.32608 11 5C11 3.67392 11.5795 2.40215 12.6109 1.46447C13.6424 0.526784 15.0413 0 16.5 0V0ZM34.6665 18.34V9.964C34.9151 9.671 35.2165 9.451 35.5729 9.304C35.9293 9.158 36.3308 9.084 36.7774 9.084C37.4231 9.084 37.9412 9.289 38.3306 9.698C38.7189 10.106 38.9136 10.643 38.9136 11.306V18.34H42.9374V10.797C42.937 10.534 42.9205 10.2713 42.8879 10.01C43.153 9.717 43.4676 9.49 43.8317 9.327C44.1958 9.165 44.6017 9.085 45.0494 9.085C45.6951 9.085 46.2121 9.289 46.6015 9.698C46.9909 10.106 47.1845 10.643 47.1845 11.306V18.34H51.2094V10.797C51.2094 9.362 50.7331 8.182 49.7805 7.257C48.829 6.331 47.6069 5.868 46.1175 5.868C45.2562 5.868 44.4609 6.015 43.7327 6.308C43.0118 6.59615 42.3679 7.02255 41.8451 7.558C41.3985 7.03336 40.8248 6.60939 40.1687 6.319C39.4762 6.01409 38.715 5.86002 37.9456 5.869C37.3329 5.869 36.7488 5.953 36.1944 6.123C35.6389 6.293 35.1307 6.547 34.6665 6.886V6.1H30.6427V18.34H34.6665V18.34ZM60.1513 18.571C61.2436 18.571 62.2248 18.425 63.0938 18.131C63.9628 17.839 64.812 17.368 65.6403 16.721L62.9827 14.522C62.6681 14.815 62.2875 15.042 61.8398 15.205C61.3646 15.3717 60.8586 15.4542 60.3493 15.448C59.5881 15.448 58.9259 15.266 58.3627 14.904C57.8105 14.5542 57.3793 14.0686 57.1197 13.504H66.4851V12.578C66.4935 11.6677 66.3252 10.7632 65.9879 9.906C65.6568 9.081 65.197 8.375 64.6096 7.789C64.0206 7.20171 63.3065 6.72918 62.5108 6.4C61.6764 6.05616 60.7693 5.88244 59.8532 5.891C58.8929 5.891 57.9942 6.053 57.1582 6.377C56.3425 6.68814 55.6035 7.14442 54.9846 7.719C54.3622 8.30328 53.8689 8.99071 53.5315 9.744C53.1733 10.5325 52.9915 11.3779 52.9969 12.231C52.9969 13.111 53.1839 13.94 53.5557 14.719C53.9124 15.4763 54.4272 16.1637 55.0715 16.743C55.7238 17.323 56.4963 17.7794 57.3441 18.086C58.2362 18.4122 59.1898 18.5769 60.1513 18.571V18.571ZM62.535 10.889H57.046C57.244 10.272 57.585 9.794 58.0646 9.455C58.5442 9.115 59.1162 8.945 59.7784 8.945C60.4241 8.945 60.9917 9.123 61.4801 9.478C61.9685 9.833 62.3205 10.303 62.5361 10.889H62.535ZM74.9298 18.571C76.0232 18.571 77.0033 18.425 77.8734 18.131C78.7424 17.839 79.5916 17.368 80.4188 16.721L77.7612 14.522C77.4466 14.815 77.066 15.042 76.6183 15.205C76.1434 15.3716 75.6379 15.454 75.1289 15.448C74.3666 15.448 73.7044 15.266 73.1412 14.904C72.5894 14.554 72.1586 14.0684 71.8993 13.504H81.2636V12.578C81.272 11.6677 81.1037 10.7632 80.7664 9.906C80.4364 9.081 79.9766 8.375 79.3881 7.789C78.799 7.20171 78.085 6.72918 77.2893 6.4C76.4549 6.05616 75.5478 5.88244 74.6317 5.891C73.6714 5.891 72.7727 6.053 71.9367 6.377C71.121 6.68814 70.382 7.14442 69.7631 7.719C69.1411 8.30336 68.6482 8.99079 68.3111 9.744C67.9529 10.5325 67.7711 11.3779 67.7765 12.231C67.7765 13.111 67.9635 13.94 68.3353 14.719C68.6917 15.4763 69.2061 16.1636 69.85 16.743C70.5023 17.323 71.2748 17.7794 72.1226 18.086C73.0147 18.4122 73.9683 18.5769 74.9298 18.571V18.571ZM77.3146 10.889H71.8256C72.0236 10.272 72.3635 9.794 72.8431 9.455C73.3238 9.115 73.8947 8.945 74.5569 8.945C75.2026 8.945 75.7702 9.123 76.2586 9.478C76.747 9.833 77.099 10.303 77.3146 10.889ZM89.7831 18.502C90.1637 18.502 90.6356 18.467 91.1988 18.398C91.6703 18.3466 92.1359 18.2575 92.5903 18.132V15.1C92.2592 15.192 91.9523 15.258 91.6707 15.296C91.3746 15.3356 91.0757 15.355 90.7764 15.354C90.1307 15.354 89.6797 15.242 89.4234 15.019C89.166 14.795 89.0384 14.413 89.0384 13.873V9.223H92.7146V6.1H89.0384V2.143L85.0146 2.953V6.1H82.357V9.223H85.0146V14.615C85.0146 15.895 85.4161 16.863 86.2191 17.519C87.0221 18.174 88.2101 18.502 89.7831 18.502V18.502ZM96.4293 5.277C96.9375 5.277 97.3676 5.121 97.7185 4.811C98.0683 4.501 98.2443 4.111 98.2443 3.638C98.2443 3.175 98.0683 2.786 97.7185 2.472C97.55 2.31808 97.3488 2.19688 97.1272 2.11574C96.9056 2.03461 96.6681 1.99523 96.4293 2C95.92 2 95.4877 2.157 95.1324 2.472C94.9593 2.62201 94.8226 2.80319 94.7309 3.00396C94.6393 3.20473 94.5947 3.42067 94.6 3.638C94.6 4.11 94.7771 4.501 95.1324 4.811C95.4877 5.121 95.92 5.277 96.4293 5.277V5.277Z" fill="#ADADAD"/>
</g>
<defs>
<clipPath id="clip0_6_39">
<rect width="99" height="20" fill="white"/>
</clipPath>
</defs>
</svg>
