<svg width="126" height="20" viewBox="0 0 126 20" fill="none" xmlns="http://www.w3.org/2000/svg">
<path d="M25.2962 20C26.2224 20 27.0381 19.817 27.7421 19.45C28.433 19.0938 29.0303 18.6062 29.4928 18.021V19.659H33.0242V0H29.4928V8.191C29.0345 7.60078 28.4364 7.11054 27.7421 6.756C27.0381 6.394 26.2224 6.212 25.2962 6.212C24.2451 6.212 23.2603 6.392 22.3451 6.75C21.4277 7.108 20.6198 7.604 19.9202 8.237C19.223 8.86758 18.6655 9.61297 18.2777 10.433C17.8789 11.2776 17.6768 12.1876 17.6842 13.106C17.6842 14.059 17.8821 14.95 18.2777 15.78C18.6734 16.61 19.2205 17.342 19.9202 17.975C20.6158 18.6063 21.4386 19.1114 22.344 19.463C23.2614 19.821 24.2451 20 25.2962 20V20ZM25.3404 16.92C24.6275 16.9254 23.9274 16.7482 23.3211 16.409C22.6976 16.0634 22.1838 15.5774 21.8299 14.9985C21.4759 14.4196 21.294 13.7675 21.3017 13.106C21.3017 12.398 21.4852 11.756 21.8522 11.18C22.2047 10.6164 22.7069 10.1411 23.3133 9.797C23.9201 9.45194 24.6237 9.27212 25.3404 9.279C26.0831 9.279 26.7463 9.449 27.3298 9.79C27.9134 10.131 28.3688 10.592 28.6971 11.173C29.0253 11.754 29.1889 12.398 29.1889 13.106C29.1889 13.806 29.0253 14.446 28.6971 15.026C28.3879 15.5882 27.9186 16.0656 27.3376 16.409C26.7584 16.749 26.0919 16.92 25.3404 16.92V16.92ZM43.4302 20C44.3078 20 45.0726 19.819 45.7236 19.456C46.3673 19.1003 46.9101 18.6133 47.3086 18.034L47.4523 19.659H50.9991V6.553H47.4677L47.6269 8.231C47.0928 7.63418 46.4369 7.1358 45.6949 6.763C44.9378 6.378 44.0768 6.186 43.1119 6.186C42.0796 6.186 41.1147 6.361 40.2172 6.71C39.3306 7.05316 38.525 7.54709 37.8442 8.165C37.1589 8.785 36.6284 9.506 36.2526 10.328C35.8732 11.1634 35.6812 12.0588 35.6878 12.962C35.6802 13.8841 35.8758 14.7983 36.2633 15.6512C36.6509 16.504 37.2225 17.2784 37.9448 17.929C38.6557 18.5735 39.496 19.0894 40.4206 19.449C41.3556 19.817 42.3592 20 43.4302 20V20ZM43.5308 16.92C42.8252 16.922 42.1324 16.7498 41.5269 16.422C40.9067 16.092 40.379 15.6368 39.9851 15.092C39.5815 14.5406 39.3333 13.9082 39.2623 13.25C39.1948 12.516 39.3253 11.85 39.6524 11.252C39.9662 10.6682 40.449 10.1723 41.0495 9.817C41.6577 9.45706 42.3708 9.26972 43.0975 9.279C43.7974 9.27049 44.4854 9.44329 45.0804 9.777C45.6684 10.109 46.1503 10.553 46.5272 11.107C46.9029 11.662 47.1251 12.28 47.1925 12.962C47.2511 13.687 47.1328 14.349 46.8388 14.948C46.563 15.526 46.1144 16.023 45.5435 16.383C44.9732 16.741 44.3034 16.92 43.5319 16.92H43.5308ZM59.4223 19.66V9.75H62.2296V6.553H59.4223V2.438H55.8909V6.553H53.7489V9.751H55.8909V19.659H59.4223V19.66ZM71.8819 20C72.7606 20 73.5243 19.819 74.1764 19.456C74.8197 19.1002 75.3621 18.6132 75.7603 18.034L75.9051 19.659H79.4507V6.553H75.9205L76.0808 8.231C75.5464 7.63408 74.8901 7.1357 74.1477 6.763C73.3906 6.378 72.5296 6.186 71.5647 6.186C70.5324 6.186 69.5675 6.361 68.67 6.71C67.7834 7.05316 66.9778 7.54709 66.297 8.165C65.6117 8.785 65.0812 9.506 64.7054 10.328C64.3263 11.1635 64.1347 12.0589 64.1417 12.962C64.1341 13.8841 64.3297 14.7983 64.7172 15.6512C65.1048 16.504 65.6764 17.2784 66.3987 17.929C67.1093 18.5734 67.9492 19.0893 68.8734 19.449C69.8095 19.817 70.812 20 71.883 20H71.8819ZM71.9836 16.92C71.2776 16.9221 70.5844 16.75 69.9786 16.422C69.3587 16.0919 68.8315 15.6367 68.4379 15.092C68.0339 14.5407 67.7853 13.9083 67.7139 13.25C67.6476 12.516 67.7769 11.85 68.1052 11.252C68.4187 10.6684 68.9011 10.1725 69.5012 9.817C70.1094 9.45706 70.8225 9.26972 71.5492 9.279C72.2491 9.27049 72.9371 9.44329 73.5321 9.777C74.1201 10.109 74.6031 10.553 74.98 11.107C75.3557 11.662 75.5768 12.28 75.6453 12.962C75.7028 13.687 75.5845 14.349 75.2905 14.948C75.0147 15.526 74.5661 16.023 73.9952 16.383C73.426 16.741 72.7551 16.92 71.9836 16.92V16.92ZM90.6238 20C91.6849 20 92.6763 19.82 93.597 19.463C95.4334 18.7553 96.8944 17.4302 97.6721 15.767C98.0698 14.9172 98.2714 14.0028 98.2645 13.08C98.2645 11.813 97.9219 10.657 97.2366 9.613C96.5655 8.58168 95.6144 7.72254 94.4735 7.117C93.3152 6.497 92.032 6.187 90.6238 6.187C89.7175 6.187 88.914 6.372 88.2144 6.743C87.5221 7.10828 86.9229 7.60171 86.4559 8.191V0H82.9246V19.66H86.4559V17.995C86.9225 18.5842 87.5214 19.0776 88.2133 19.443C88.914 19.814 89.7164 20 90.6227 20H90.6238ZM90.5796 16.907C89.8469 16.907 89.1914 16.737 88.6123 16.396C88.0308 16.0527 87.5611 15.5753 87.2517 15.013C86.919 14.4136 86.7503 13.7507 86.7599 13.08C86.7599 12.39 86.9234 11.754 87.2517 11.173C87.5619 10.6096 88.0308 10.1301 88.6112 9.783C89.1958 9.43645 89.8819 9.25638 90.5807 9.266C91.3235 9.266 92.0032 9.436 92.6211 9.777C93.2378 10.118 93.7307 10.579 94.0966 11.16C94.4635 11.74 94.647 12.381 94.647 13.08C94.647 13.788 94.4635 14.43 94.0966 15.007C93.7425 15.5716 93.2374 16.0468 92.6277 16.389C92.0138 16.7345 91.3037 16.9142 90.5807 16.907H90.5796ZM102.65 4.6C103.162 4.6 103.594 4.445 103.947 4.135C104.298 3.825 104.475 3.434 104.475 2.962C104.475 2.499 104.298 2.11 103.947 1.796C103.777 1.64208 103.575 1.52088 103.353 1.43974C103.13 1.35861 102.891 1.31923 102.651 1.324C102.14 1.324 101.705 1.481 101.348 1.796C101.174 1.94601 101.037 2.12719 100.945 2.32796C100.853 2.52873 100.808 2.74467 100.813 2.962C100.813 3.434 100.991 3.825 101.348 4.135C101.705 4.445 102.14 4.6 102.651 4.6H102.65ZM123.65 9.6C124.162 9.6 124.594 9.445 124.947 9.135C125.298 8.825 125.475 8.434 125.475 7.962C125.475 7.499 125.298 7.11 124.947 6.796C124.777 6.64208 124.575 6.52088 124.353 6.43974C124.13 6.35861 123.891 6.31923 123.651 6.324C123.14 6.324 122.705 6.481 122.348 6.796C122.174 6.94601 122.037 7.12719 121.945 7.32796C121.853 7.52873 121.808 7.74467 121.813 7.962C121.813 8.434 121.991 8.825 122.348 9.135C122.705 9.445 123.14 9.6 123.651 9.6H123.65ZM7.71363 19.324C9.74179 19.324 11.4549 18.708 12.8531 17.478C14.2502 16.248 14.9487 14.696 14.9487 12.824C14.9487 10.986 14.2502 9.444 12.852 8.196C11.4549 6.948 9.74179 6.324 7.71253 6.324C5.68437 6.324 3.96237 6.948 2.54542 8.196C1.12847 9.444 0.419998 10.986 0.419998 12.824C0.419998 14.696 1.12737 16.247 2.54431 17.478C3.96126 18.708 5.68326 19.324 7.71253 19.324H7.71363ZM104.402 19.659V6.553H100.871V19.66H104.402V19.659ZM120.317 19.659V16.461H113.052L120.317 9.751V6.553H107.957V9.751H115.236L107.957 16.461V19.659H120.316H120.317Z" fill="#ADADAD"/>
</svg>
