<svg width="92" height="24" viewBox="0 0 92 24" fill="none" xmlns="http://www.w3.org/2000/svg">
<g clip-path="url(#clip0_6_37)">
<path d="M39.1011 17.143V11.76C39.1011 11.25 39.2574 10.835 39.5711 10.514C39.8837 10.193 40.2982 10.032 40.8159 10.032C41.3568 10.032 41.7802 10.196 42.0883 10.522C42.3954 10.848 42.5483 11.305 42.5483 11.892V17.142H45.029V11.76C45.029 11.42 45.1011 11.12 45.244 10.86C45.387 10.599 45.5854 10.396 45.8415 10.25C46.0964 10.105 46.3979 10.032 46.7438 10.032C47.2858 10.032 47.7092 10.196 48.0162 10.522C48.3233 10.848 48.4773 11.305 48.4773 11.892V17.142H50.958V11.3C50.958 10.329 50.6698 9.543 50.0957 8.942C49.5215 8.342 48.6713 8.042 47.5463 8.042C46.8901 8.042 46.2926 8.172 45.755 8.432C45.2163 8.692 44.7874 9.056 44.4693 9.522L44.538 9.426L44.497 9.356C44.3017 9.05724 44.0429 8.79623 43.7355 8.588L43.5747 8.485C43.0793 8.189 42.4441 8.041 41.6727 8.041C40.9976 8.041 40.388 8.175 39.8438 8.444C39.4813 8.624 39.1676 8.845 38.9038 9.11L38.7907 9.23V8.255H36.6016V17.142H39.1011V17.143ZM56.0657 17.39C56.917 17.39 57.6208 17.257 58.1773 16.99C58.6095 16.784 59.0197 16.476 59.4065 16.069L59.422 16.051V17.143H61.5923V11.712C61.5923 11.306 61.5746 10.939 61.538 10.609C61.4954 10.2626 61.3775 9.92725 61.1911 9.622C60.8683 9.04948 60.3229 8.60442 59.6592 8.372C58.9842 8.13 58.2116 8.009 57.3426 8.009C56.1566 8.009 55.22 8.239 54.5338 8.7C53.8602 9.14302 53.3665 9.77329 53.1283 10.494L55.3729 11.136C55.5303 10.73 55.8074 10.448 56.202 10.288C56.5977 10.129 56.9779 10.05 57.3426 10.05C57.9988 10.05 58.4677 10.173 58.747 10.42C58.9432 10.593 59.0707 10.834 59.1294 11.144L59.146 11.26L58.7503 11.313L58.3446 11.368L57.9533 11.42C57.3149 11.505 56.744 11.594 56.2386 11.687C55.7343 11.781 55.2998 11.887 54.9351 12.008C54.4053 12.184 53.984 12.402 53.6715 12.662C53.3578 12.923 53.1317 13.223 52.992 13.563C52.8477 13.9246 52.7764 14.3067 52.7814 14.691C52.7814 15.184 52.9078 15.636 53.1605 16.044C53.4132 16.453 53.7834 16.779 54.2733 17.024C54.7633 17.268 55.3596 17.39 56.0657 17.39ZM56.5944 15.629C56.3084 15.629 56.0624 15.59 55.8562 15.514C55.6639 15.4472 55.4974 15.3311 55.3773 15.18C55.2618 15.0262 55.2025 14.8437 55.2078 14.658C55.2078 14.51 55.2432 14.375 55.3131 14.255C55.3829 14.134 55.4926 14.023 55.6412 13.921C55.7908 13.82 55.987 13.725 56.2297 13.637C56.4426 13.567 56.6886 13.5 56.9691 13.44C57.2484 13.38 57.6164 13.312 58.0719 13.238C58.3568 13.192 58.6971 13.138 59.0917 13.078L59.125 13.074V13.081C59.1211 13.192 59.1159 13.3031 59.1094 13.414L59.0984 13.6C59.0762 13.921 59.003 14.203 58.8745 14.444C58.808 14.57 58.6816 14.726 58.4965 14.913C58.2827 15.1186 58.0292 15.2874 57.7483 15.411C57.4357 15.556 57.05 15.629 56.5955 15.629H56.5944ZM66.4816 17.143V12.864L69.8923 17.143H73.1212L69.327 12.699L72.8851 8.256H69.8202L66.4816 12.535V5.294H63.9644L63.9455 17.143H66.4816V17.143ZM83.0727 13.325C83.1758 12.25 83.0538 11.315 82.7069 10.519C82.3611 9.723 81.8257 9.106 81.1019 8.667C80.3792 8.229 79.5002 8.009 78.466 8.009C77.4939 8.009 76.6327 8.208 75.8856 8.606C75.1364 9.00432 74.5262 9.58431 74.1243 10.28C73.6987 10.999 73.4858 11.844 73.4858 12.815C73.4858 13.703 73.7042 14.492 74.1387 15.18C74.5642 15.86 75.1894 16.4209 75.9454 16.801C76.7136 17.194 77.6026 17.39 78.6123 17.39C79.5612 17.39 80.4346 17.165 81.2349 16.715C82.0299 16.2701 82.6454 15.6065 82.9907 14.822L80.5089 14.181C80.3271 14.543 80.0622 14.82 79.7163 15.011C79.3694 15.204 78.9526 15.3 78.466 15.3C77.6946 15.3 77.1093 15.073 76.7103 14.62C76.4354 14.307 76.2547 13.904 76.1694 13.41L76.156 13.325H83.0727V13.325ZM80.5621 11.663H76.2226L76.2403 11.587C76.3256 11.264 76.452 10.987 76.6227 10.757L76.7114 10.647C77.1093 10.183 77.7311 9.951 78.5758 9.951C79.2996 9.951 79.8205 10.15 80.1398 10.548C80.336 10.792 80.4723 11.133 80.5477 11.57L80.5621 11.663ZM87.6228 17.143V12.6C87.6228 12.26 87.6749 11.954 87.778 11.682C87.8751 11.4207 88.0306 11.1801 88.2346 10.975C88.4353 10.775 88.6813 10.614 88.974 10.493C89.2655 10.367 89.5925 10.292 89.9538 10.267C90.3163 10.242 90.6333 10.268 90.9071 10.345V8.255C90.6107 8.22233 90.3115 8.21564 90.0137 8.235C89.7144 8.254 89.4262 8.3 89.1469 8.375C88.8742 8.44597 88.6132 8.54955 88.371 8.683C88.0606 8.847 87.8001 9.056 87.5873 9.308C87.5021 9.40903 87.4236 9.51455 87.3523 9.624L87.3135 9.687V8.256H85.1244V17.143H87.6239H87.6228ZM12.1617 0C18.2204 0 23.245 3.997 24.1705 9.228C25.818 10.9303 26.6873 13.1337 26.6025 15.3923C26.5178 17.6509 25.4853 19.7961 23.7139 21.3941C21.9426 22.992 19.5647 23.9233 17.0611 23.9996C14.5576 24.0759 12.1154 23.2915 10.2286 21.805C4.43152 20.97 0 16.438 0 10.971C0 4.912 5.44463 0 12.1595 0H12.1617ZM16.7052 6.171C14.6947 6.17399 12.733 6.73024 11.0821 7.76549C9.43127 8.80074 8.16973 10.2657 7.46598 11.9648C6.76224 13.6639 6.64977 15.5162 7.1436 17.2745C7.63744 19.0328 8.71406 20.6133 10.2297 21.805C11.1968 21.9439 12.1788 21.9782 13.1549 21.907C11.4366 21.1751 10.0459 19.937 9.21192 18.3967C8.37792 16.8564 8.15037 15.1057 8.56675 13.4331C8.98313 11.7605 10.0186 10.2657 11.5026 9.19507C12.9866 8.12441 14.8305 7.54172 16.7307 7.543C18.3137 7.5453 19.8635 7.95259 21.2002 8.71761C22.5369 9.48263 23.6057 10.574 24.2825 11.865C24.0477 14.4572 22.7999 16.8899 20.7616 18.7292C18.7233 20.5685 16.0271 21.6947 13.1538 21.907C14.7115 22.5702 16.4583 22.7831 18.1553 22.5167C19.8523 22.2502 21.4166 21.5175 22.6345 20.4185C23.8523 19.3196 24.6642 17.9081 24.9592 16.3771C25.2542 14.8461 25.0178 13.2702 24.2825 11.865C24.3624 10.9852 24.3252 10.0999 24.1716 9.228C23.2432 8.26484 22.0958 7.4933 20.8075 6.9658C19.5191 6.43831 18.12 6.16723 16.7052 6.171V6.171Z" fill="#ADADAD"/>
</g>
<defs>
<clipPath id="clip0_6_37">
<rect width="92" height="24" fill="white"/>
</clipPath>
</defs>
</svg>
