<svg width="16" height="16" viewBox="0 0 16 16" fill="none" xmlns="http://www.w3.org/2000/svg">
<path d="M8 0C10.1217 0 12.1566 0.842855 13.6569 2.34315C15.1571 3.84344 16 5.87827 16 8C16 10.1217 15.1571 12.1566 13.6569 13.6569C12.1566 15.1571 10.1217 16 8 16C5.87827 16 3.84344 15.1571 2.34315 13.6569C0.842855 12.1566 0 10.1217 0 8C0 5.87827 0.842855 3.84344 2.34315 2.34315C3.84344 0.842855 5.87827 0 8 0V0ZM8 2.133C6.44397 2.133 4.95168 2.75113 3.8514 3.8514C2.75113 4.95168 2.133 6.44397 2.133 8C2.133 9.55603 2.75113 11.0483 3.8514 12.1486C4.95168 13.2489 6.44397 13.867 8 13.867C9.55603 13.867 11.0483 13.2489 12.1486 12.1486C13.2489 11.0483 13.867 9.55603 13.867 8C13.867 6.44397 13.2489 4.95168 12.1486 3.8514C11.0483 2.75113 9.55603 2.133 8 2.133V2.133ZM8 3.2C9.27304 3.2 10.4939 3.70571 11.3941 4.60589C12.2943 5.50606 12.8 6.72696 12.8 8C12.8 9.27304 12.2943 10.4939 11.3941 11.3941C10.4939 12.2943 9.27304 12.8 8 12.8C6.72696 12.8 5.50606 12.2943 4.60589 11.3941C3.70571 10.4939 3.2 9.27304 3.2 8C3.2 6.72696 3.70571 5.50606 4.60589 4.60589C5.50606 3.70571 6.72696 3.2 8 3.2V3.2ZM7.467 5.867C7.39692 5.86687 7.3275 5.88056 7.26272 5.90728C7.19794 5.93401 7.13907 5.97325 7.08947 6.02276C7.03987 6.07226 7.00052 6.13107 6.97367 6.1958C6.94682 6.26053 6.933 6.32992 6.933 6.4V8.533C6.933 8.828 7.173 9.067 7.467 9.067H10.667C10.8085 9.067 10.9442 9.01079 11.0442 8.91074C11.1443 8.81069 11.2005 8.67499 11.2005 8.5335C11.2005 8.39201 11.1443 8.25631 11.0442 8.15626C10.9442 8.05621 10.8085 8 10.667 8H8V6.4C8 6.25864 7.94384 6.12307 7.84389 6.02311C7.74393 5.92316 7.60836 5.867 7.467 5.867V5.867Z" fill="#8E4CB6"/>
</svg>
