<svg width="84" height="27" viewBox="0 0 84 27" fill="none" xmlns="http://www.w3.org/2000/svg">
<rect width="84" height="27" fill="#F5F5F5"/>
<path d="M8.852 19.42C7.744 19.42 6.677 19.292 5.65 19.035C4.67797 18.8011 3.74821 18.4175 2.894 17.898C2.083 17.396 1.441 16.768 0.968998 16.016C0.495998 15.264 0.259998 14.386 0.259998 13.383V13.067H5.65V13.313C5.65 13.989 5.95 14.485 6.551 14.8C7.152 15.115 7.966 15.272 8.992 15.272C9.5132 15.2739 10.033 15.2182 10.542 15.106C11.037 14.996 11.445 14.815 11.766 14.564C12.087 14.313 12.248 13.995 12.248 13.61C12.248 12.992 11.906 12.554 11.224 12.297C10.541 12.041 9.447 11.784 7.942 11.527C7.06733 11.3817 6.20238 11.183 5.352 10.932C4.50927 10.6893 3.69878 10.3462 2.938 9.91C2.23113 9.50989 1.62611 8.95209 1.17 8.28C0.726998 7.622 0.504998 6.82 0.504998 5.875C0.504998 4.615 0.886998 3.553 1.651 2.69C2.415 1.827 3.433 1.173 4.705 0.73C5.977 0.287 7.377 0.0650002 8.905 0.0650002C10.363 0.0650002 11.723 0.307 12.983 0.791C14.243 1.275 15.263 1.97 16.045 2.874C16.827 3.778 17.217 4.866 17.217 6.138V6.383H11.88V6.173C11.88 5.706 11.731 5.327 11.434 5.035C11.1145 4.73054 10.7277 4.50578 10.305 4.379C9.84664 4.23254 9.36819 4.15864 8.887 4.16C8.444 4.16 7.987 4.21 7.514 4.309C7.041 4.408 6.642 4.571 6.315 4.799C5.988 5.026 5.825 5.344 5.825 5.753C5.825 6.149 6 6.473 6.35 6.723C6.7 6.975 7.19 7.179 7.82 7.336C8.45 7.494 9.18 7.642 10.008 7.783C10.789 7.911 11.615 8.089 12.484 8.316C13.353 8.544 14.17 8.865 14.934 9.279C15.6709 9.66908 16.3062 10.2263 16.789 10.906C17.261 11.577 17.498 12.426 17.498 13.452C17.498 14.514 17.253 15.424 16.763 16.182C16.2618 16.951 15.5795 17.5853 14.776 18.029C13.9059 18.5151 12.9683 18.869 11.994 19.079C10.973 19.306 9.926 19.42 8.852 19.42V19.42ZM33.48 19V8.92C33.48 8.15 33.38 7.447 33.182 6.811C33.0004 6.19913 32.6262 5.66219 32.115 5.28C31.602 4.895 30.861 4.703 29.892 4.703C29.052 4.703 28.326 4.895 27.714 5.28C27.0977 5.66849 26.6078 6.22789 26.304 6.89C25.978 7.578 25.814 8.372 25.814 9.27L24.31 8.185C24.31 6.575 24.66 5.163 25.36 3.95C26.0352 2.76131 27.0174 1.77593 28.204 1.097C29.398 0.41 30.726 0.0660002 32.183 0.0660002C33.713 0.0660002 34.969 0.372 35.955 0.985C36.941 1.597 37.676 2.449 38.16 3.54C38.644 4.63 38.886 5.905 38.886 7.364V19H33.48ZM20.39 19V0.415H25.815V19H20.39ZM48.779 19.385C47.425 19.385 46.221 19.169 45.165 18.737C44.109 18.306 43.284 17.682 42.689 16.865C42.094 16.048 41.796 15.057 41.796 13.89C41.796 12.572 42.158 11.498 42.881 10.67C43.605 9.842 44.564 9.209 45.76 8.771C47.0165 8.31998 48.3248 8.02903 49.654 7.905C51.695 7.707 53.104 7.525 53.88 7.363C54.656 7.199 55.044 6.913 55.044 6.505V6.47C55.044 5.782 54.714 5.24 54.055 4.843C53.395 4.446 52.477 4.248 51.299 4.248C50.05 4.248 49.097 4.472 48.438 4.921C47.778 5.371 47.448 6.056 47.448 6.977H42.11C42.11 5.484 42.516 4.224 43.327 3.197C44.137 2.171 45.237 1.392 46.625 0.861C48.014 0.331 49.583 0.0650002 51.333 0.0650002C52.966 0.0650002 54.477 0.313 55.865 0.809C57.254 1.305 58.371 2.049 59.217 3.04C60.062 4.032 60.485 5.292 60.485 6.82V14.852C60.485 15.331 60.5 15.789 60.529 16.226C60.559 16.664 60.625 17.063 60.73 17.425C60.847 17.833 60.993 18.172 61.168 18.44C61.343 18.708 61.488 18.895 61.605 19H56.268C56.1285 18.8416 56.0027 18.6717 55.892 18.492C55.7119 18.2138 55.5675 17.9141 55.462 17.6C55.3241 17.1985 55.2221 16.7855 55.157 16.366C55.0878 15.8821 55.0554 15.3938 55.06 14.905L56.18 15.675C55.854 16.445 55.326 17.107 54.597 17.661C53.867 18.215 53.004 18.641 52.007 18.939C51.009 19.236 49.933 19.385 48.777 19.385H48.779ZM50.231 15.325C51.0503 15.3313 51.8626 15.1735 52.62 14.861C53.3516 14.5587 53.9802 14.0514 54.43 13.4C54.897 12.735 55.13 11.866 55.13 10.792V8.92L56.478 10.233C55.708 10.513 54.818 10.743 53.809 10.923C52.799 11.105 51.794 11.247 50.79 11.353C49.6 11.469 48.71 11.67 48.122 11.956C47.532 12.242 47.238 12.723 47.238 13.4C47.238 14.042 47.488 14.523 47.99 14.844C48.492 15.164 49.239 15.325 50.23 15.325H50.231ZM63.973 26.648V0.415H69.415V26.648H63.973V26.648ZM75.155 19.42C73.7211 19.4304 72.3157 19.0198 71.113 18.239C69.888 17.451 68.908 16.389 68.173 15.054C67.438 13.718 67.07 12.216 67.07 10.547V10.267L69.415 10.215V10.425C69.415 11.288 69.625 12.044 70.045 12.691C70.465 13.339 71.008 13.837 71.673 14.187C72.338 14.537 73.032 14.713 73.755 14.713C74.945 14.713 75.981 14.301 76.861 13.479C77.742 12.656 78.183 11.37 78.183 9.62C78.183 7.87 77.745 6.595 76.87 5.796C75.995 4.997 74.957 4.597 73.755 4.597C73.032 4.597 72.338 4.77 71.673 5.114C71.0137 5.45282 70.4529 5.95604 70.045 6.575C69.625 7.205 69.415 7.958 69.415 8.832L67.07 8.692C67.07 7.012 67.438 5.528 68.173 4.239C68.908 2.949 69.888 1.932 71.113 1.185C72.329 0.440858 73.7294 0.05282 75.155 0.0650002C76.66 0.0650002 78.066 0.435 79.373 1.176C80.679 1.917 81.738 2.999 82.549 4.423C83.359 5.846 83.765 7.578 83.765 9.62C83.765 11.755 83.369 13.552 82.575 15.01C81.782 16.468 80.732 17.568 79.425 18.309C78.1241 19.0483 76.6512 19.4315 75.155 19.42Z" fill="#151515"/>
</svg>
