<svg width="13" height="17" viewBox="0 0 13 17" fill="none" xmlns="http://www.w3.org/2000/svg">
<path d="M6.40799 13.916C3.09499 13.916 0.40799 12.573 0.40799 10.916C0.40799 10.304 0.778989 9.736 1.40799 9.262V7.916C1.40804 6.93556 1.69634 5.97676 2.23703 5.15888C2.77772 4.34101 3.54693 3.70014 4.44899 3.316C4.36062 2.87839 4.42121 2.42379 4.62111 2.0246C4.82101 1.62541 5.14872 1.30457 5.55207 1.1132C5.95542 0.921816 6.4112 0.870892 6.84684 0.968535C7.28247 1.06618 7.67292 1.30677 7.95599 1.652C8.14353 1.88157 8.2777 2.14996 8.34878 2.43774C8.41986 2.72553 8.42608 3.02552 8.36699 3.316C9.26889 3.70035 10.038 4.34127 10.5786 5.1591C11.1193 5.97693 11.4077 6.93562 11.408 7.916V9.262C12.037 9.736 12.408 10.304 12.408 10.916C12.408 12.573 9.72099 13.916 6.40799 13.916V13.916ZM6.40799 14.916C7.10199 14.916 7.75999 14.85 8.39199 14.756C8.39599 14.81 8.40799 14.861 8.40799 14.916C8.40799 15.4464 8.19728 15.9551 7.8222 16.3302C7.44713 16.7053 6.93842 16.916 6.40799 16.916C5.87756 16.916 5.36885 16.7053 4.99378 16.3302C4.6187 15.9551 4.40799 15.4464 4.40799 14.916C4.40799 14.861 4.41999 14.81 4.42399 14.756C5.05699 14.85 5.71399 14.916 6.40799 14.916V14.916Z" fill="#EDD556"/>
</svg>
